<svg width="32" height="25" viewBox="0 0 32 25" fill="none" xmlns="http://www.w3.org/2000/svg">
<g clip-path="url(#clip0_212_296)">
<path d="M12.3894 24.7202C13.7867 24.7202 14.9194 23.5874 14.9194 22.1902C14.9194 20.7929 13.7867 19.6602 12.3894 19.6602C10.9921 19.6602 9.85938 20.7929 9.85938 22.1902C9.85938 23.5874 10.9921 24.7202 12.3894 24.7202Z" fill="white"/>
<path d="M12.3903 24.2601C13.5335 24.2601 14.4603 23.3333 14.4603 22.1901C14.4603 21.0469 13.5335 20.1201 12.3903 20.1201C11.2471 20.1201 10.3203 21.0469 10.3203 22.1901C10.3203 23.3333 11.2471 24.2601 12.3903 24.2601Z" fill="white" stroke="white" stroke-width="0.5"/>
<path d="M22.2878 24.7202C23.6851 24.7202 24.8178 23.5874 24.8178 22.1902C24.8178 20.7929 23.6851 19.6602 22.2878 19.6602C20.8905 19.6602 19.7578 20.7929 19.7578 22.1902C19.7578 23.5874 20.8905 24.7202 22.2878 24.7202Z" fill="white"/>
<path d="M22.2888 24.2601C23.432 24.2601 24.3588 23.3333 24.3588 22.1901C24.3588 21.0469 23.432 20.1201 22.2888 20.1201C21.1455 20.1201 20.2188 21.0469 20.2188 22.1901C20.2188 23.3333 21.1455 24.2601 22.2888 24.2601Z" fill="white" stroke="white"/>
<path d="M31.41 1.94043H5.5V3.65043H31.41V1.94043Z" fill="white"/>
<path d="M26.7028 15.2305H7.88281V16.9305H26.7028V15.2305Z" fill="white"/>
<path d="M0.00211018 0.757079L7.89844 16.9326L9.45309 16.1737L1.55676 -0.00184544L0.00211018 0.757079Z" fill="white"/>
<path d="M29.8756 6.37988H7.26562V8.09988H29.8756V6.37988Z" fill="white"/>
<path d="M28.4862 10.8398H9.40625V12.5398H28.4862V10.8398Z" fill="white"/>
</g>
<defs>
<clipPath id="clip0_212_296">
<rect width="31.42" height="24.76" fill="white"/>
</clipPath>
</defs>
</svg>
